# xmcd CD database file
#
# Track frame offsets:
#	150
#	42198
#	97286
#	145836
#	187358
#	222121
#
# Disc length: 3480 seconds
#
# Revision: 0
# Processed by: cddbd v1.5.1PL0 Copyright (c) Steve Scherf et al.
# Submitted via: CDex 1.50
#
DISCID=5d0d9606
DTITLE=Steve Waterman - Out of Touch
DYEAR=1999
DGENRE=Jazz
TTITLE0=Out of Touch
TTITLE1=Lost Rainbow
TTITLE2=Journey's End
TTITLE3=A Passing Glance
TTITLE4=Tidos
TTITLE5=October Arrival
EXTD=YEAR: 1999
EXTT0=
EXTT1=
EXTT2=
EXTT3=
EXTT4=
EXTT5=
PLAYORDER=
